<mxfile host="app.diagrams.net" modified="2021-04-17T07:19:59.558Z" agent="5.0 (Windows NT 10.0; Win64; x64) AppleWebKit/537.36 (KHTML, like Gecko) Chrome/90.0.4430.72 Safari/537.36" etag="6hW54l2fJ6lLtxg_ZmiC" version="14.5.7" type="github">
  <diagram id="yq233TpTGXFE3SX6Niyy" name="第 1 页">
    <mxGraphModel dx="1483" dy="756" grid="0" gridSize="10" guides="1" tooltips="1" connect="1" arrows="1" fold="1" page="1" pageScale="1" pageWidth="827" pageHeight="1169" math="0" shadow="0">
      <root>
        <mxCell id="0" />
        <mxCell id="1" parent="0" />
        <mxCell id="m1n4NU0bv3hGgVRafb_b-11" value="" style="rounded=0;whiteSpace=wrap;html=1;strokeColor=#000000;fontSize=14;" vertex="1" parent="1">
          <mxGeometry x="92.5" y="444" width="265" height="163.5" as="geometry" />
        </mxCell>
        <mxCell id="m1n4NU0bv3hGgVRafb_b-30" value="" style="edgeStyle=orthogonalEdgeStyle;rounded=0;orthogonalLoop=1;jettySize=auto;html=1;fontSize=18;entryX=0.25;entryY=1;entryDx=0;entryDy=0;exitX=0.515;exitY=0;exitDx=0;exitDy=0;exitPerimeter=0;" edge="1" parent="1" source="m1n4NU0bv3hGgVRafb_b-11" target="m1n4NU0bv3hGgVRafb_b-2">
          <mxGeometry relative="1" as="geometry">
            <mxPoint x="229" y="436" as="sourcePoint" />
            <mxPoint x="228.5" y="373" as="targetPoint" />
            <Array as="points">
              <mxPoint x="229" y="363" />
              <mxPoint x="331" y="363" />
            </Array>
          </mxGeometry>
        </mxCell>
        <mxCell id="m1n4NU0bv3hGgVRafb_b-9" value="" style="rounded=1;whiteSpace=wrap;html=1;strokeColor=#000000;fontSize=14;" vertex="1" parent="1">
          <mxGeometry x="111.5" y="453" width="234" height="115" as="geometry" />
        </mxCell>
        <mxCell id="m1n4NU0bv3hGgVRafb_b-2" value="" style="rounded=0;whiteSpace=wrap;html=1;" vertex="1" parent="1">
          <mxGeometry x="260" y="89" width="285" height="185" as="geometry" />
        </mxCell>
        <mxCell id="m1n4NU0bv3hGgVRafb_b-1" value="" style="shape=image;verticalLabelPosition=bottom;labelBackgroundColor=#ffffff;verticalAlign=top;aspect=fixed;imageAspect=0;image=data:image/png,iVBORw0KGgoAAAANSUhEUgAAAMgAAADICAYAAACtWK6eAAAgAElEQVR4Xu1dC3hU5Zl+v/9M4pAAMpMEhAoiyQQUK15KC9rdtguutV562XorrF23azETDNV6a93uUlutbXe9ADMhtm63rXjBbbf1UtsuFrrW1hsq2aKQmQACVYHMDAiBIZnzf/v8J4mG5MzMOXOf5JznyTMD5/u///ve/7xzbv//vQRncxBwEEiKADnYOAg4CCRHwCGIc3Q4CKRAwCGIncNj7Vqt9uAnqih+qLrHlagWul5NUqsml6giKat15moiUn9VYK6WxNXEVA1GNQlUSfXJqFZdMqFbMLqZuBtE3WAyvov+T0jqZkHdAr2HoYtuqYlumUh0u12ubhzq7t5z05xuO6E7tpkh4BBkEG51gc1jda48iQVPB9NJQtBJLHk6CCcBdBLAJ2QGc95avUnADgkYnyC8Sbp8M1Ehdhx4e/ebWP6JRN56HiWORxVBJtzz6gSMqTrJJcVJTDyd2Tjop/cd/IoEqB1Z485/AWgHAW/K/k8QvylY2zF2DL254+qT4yMr39xnM3IJspyFt65zHqDPB8Q8APNAODH3EJa1x9fBeB6EPzG0F2P+Ge1lnU0egh8xBJnQun06yd75ZBCBFCE+nAe8RrrLQwA9D8jnCWKjLsWr+5fOeHOkJ50qv/IkyFqunNAV7iMDMI+gCFFy9wcj5LiiDgK/yMCrgunVRI/26v7rT94/QpJLm0bZEGTCytDHNcEXSEELiXFW2swcg/wgQBQH4xVmuZ4lrdt/nW9DfjoqDa8lS5Ca1q0fYF2cD+KFDFpIhLoiQcYA7QSwkyB3gWknSB5kiDgz4iQQZ+a4YC0uST8qJMelpsU1RlxKjusViLukO94jDh91JxLxffv2GjfGdXUT3XGXy10pq45LiLhb64VbCHLrBLfQdbcU5BasHSdJdxORmyXcRHATpBssxoF4GkNMBTAN4GkAijWWHcxYJ1iuo25e13XLrINFGqe8dFssUE2TqV25ZYquiUsIdAmYzwORKy9ZH+OUo4oABOyUwC4w74QQO0lCkWJXtLlhV/5jyL4HbyCsyDKVBaZBymkgmibUv98jEHmz7yW1B2bsA+HXJPB41NvwOC6jnnz3mW//RSfIiXf/cczhMXUXE3AJMy4BMC5PSb8BoJ2AdgmxSbC2TaB7177m2Yfy1F9JuVXveCSqp0rSZwjIOQycjr6/U/ITKO8A43Fi7fHI0vpn8tNH/r0WjSCe1vC5kHwFkUEKdYmQqy3GwCZibgeoXWhiU9c78XYsn132v2a5AugYP8s3V9ae4D5d6nIOwKcz0ekEzAHgyVV/THiFpHxCg/bgvuaGcK78FsJPwQniDWy9nCAWMeHi7BOktwH+34GzgiJFuVwSZZ97fj2oSzZFlkFnm48C+ECWvR4BsEbqWFMuN/cFIcjEe7dNSlTqihSLcvAEaiOIfkVSfyLSPPOlLAfMaW4DgQmBjjM0ok8xcCGAc2w0NTN9mglrYk2+NVn6yWvzvBKkYUXouIiLWoi4BZzxW+x3mbBegNZJQY/HltSrm2dnKzICtQ/snMLxnoUgeT6DPgVgQoYhvcDgFTF/40MZts9rs7wRxBvsvBqQLQDOyCCD1xlYTyTWj3eLp5w5QxkgWMAmfT+EvJCYFoBogbqXsd89PQXmFdFm32/tt81fi5wTxLN628UkFTF4oc2wu8C8BkSPRP2+5222dcxLCIGatu0f4UTvlSBaZH8CKP9YMu7d39z4WimklDuCrF2r1XSdeQcDt9hMbBOD12ha5YNdS6a/bbOtY17CCNS27Zis6z2LCQZR1JMxq9u7YPpWtLnh36w2yJddTgjiDYTPYeI7CPi45UCJfsUs15TqtaflPBxDSwh4gh1fIBKLwKzuV6xuv2Gib8WaGp6z2iDXdlkTxBsM3QDgDgDutMExjkDQg5J5zX6/7/dp7R2DEYfAhGDoY0JdekleDMKY9AmSDta/HW2euTy9be4tsiKINxC+D+oJVfqtFyzvLMcXRelTcywyQaAuEG7QoS8Gia8DqEjng4DHI37fp9PZ5Xp/RgTxtHUeD13+wsolFQFPMlx3RP0nOzfeuR69EeDPG9w+j5C4jYGL0qZD2C2R+Kv9TafsSGubIwPbBKlp3fphZvGChf7fIaI7Ik0NqyzYOiajHIGa1vBSZr4NQPp1/0znRpsb/lgIyGwRRK3JEBrWpw+Mf6wJ7Y5919aH0ts6Fg4CfQjUre706VK/DaAvpsVEYHb0Wt/rae2yNLBMEGvkoD8zyztjzY0PZxmX03wUI+AJdFxJxr0Jn5YcBu6FoDPyTRJLBKldueVDUtOeSHX6I8YTvUd7/uHdG2ZHR/HYOqnnCIHxd2/2au7KH6llEClcbobAZfkkiSWCeIPh/0n9Zpz+gARfGG3xvZsjfBw3DgKofWDLONmjPQnGXyeDg4AnIn5fKhJlhWRagniDnV8B5D0pevmzpMTFhXyykFXGTuOyQmDCqtdPElTxBAgfTBY4E74Wa/LdlY/EUhLEuGlifhbMk0w7J+wWOj7dtdT3Sj6Cc3w6CCgEJgS2nyEo8bhaUpwEkYSUvGD/0sb/zTViKQniCYQCRPAn6fQQgT8b8Teuy3VQjj8HgaEI1LSG/4ZZ/hKgsaboMNZGm32X5xq5pAQZuyJUV+miHQBXJQno0miz779yHZDjz0EgGQLeQOjzIDxmvp8TPQmacqjFty+XCCYlSE0gvJSJVyYJJjJ+TMWJzjqNXA6F4ysdAkZxcar8C4DxZrbMaI41+4Lp/NjZn5Qg3mBIrdwzv+bL0+nMTuCO7ehEwBsM/RrA+aYEATbE/L5P5BIZU4J4V4TGw4UDyTpicFPM37g6l4E4vhwErCDgDWxdDhL/msT2L1G/L6cFyk0JMqH1jemCXduTBUy6PCVy3cwtQ/ert+3lUq3CymA4NsVDINmxpNYegTjp+pCquLtq9w1TVfWUnGymBKldFTpLCmxM0sPOqN+ntDSGbUb9XBedHmlqWJGT6BwnoxIBbyD8VSl5Y7IfW28wpK5uzO9DoM+J+WflTMbB/AySclIi7Yj6G05ORpD+yYwPaNzzldFStXBUHsV5SLr2u1vGybGiDURXSh2fSE6Qjk0AmRaGSNUuk5AzIAigMfnMKuQdM6GR8TJAywo1LTmT5J02pYNA37FD9w1UREl2oE/8wbZJiV79nWSRlwRBAP7HqL/xR2b3IMdMhyf0MItlMX+9c0NfOsdiyUVSEww1M6CmM723sjDZgV7TGvp7ZvyktAlC9J/RpoarzYL0BMM3Efh7g/epCWWSxP2xpvonS250nICKhoC3NXQ+A03EOGYpLTH9c6S5QdU5GLZ5g6EfAvhSaRMEye9DVOD9c7huB/MVDlGKdvyVbMfG5ZRAEwiXHRMk86+g0U2ppq97g6E/A5hd4gQxwpufrsCbJxBaRET/AnCjQ5SSPV4LFpg3GJpnnDGAq47tlHYw5HfTvVvzrg6dConNqQIukXsQpWdELxP0z0SaZqpX/0k3Y06Xxv8MomHVT9SlF5P4cbSp/mcFGyWno4IjYJT6YSwC4ZqhnTNjldbTe2fX9aemLRroCYZ+SsDi8iCIESWtq4ofd4mVFzO1wfDZEvLLAH15aIIEvCpBDxPjEUe+oODHb146PD7Y7hHsvoyI1GXU3wzvhO8XEPd3+RuSvW87ponVElOlcwYZCJ/wX9Em36VWUU5FFAAHCPSwDn7EKSxnFdHSslOXUca9heTLQTQlW2Ko9mmmlxzTRekRpC+8H0b9vmGnz1RDl4YoqulvAX6kgo48tadpzt7SOgycaAYjMKl108SEHPMp7jtbXGCOjr0zxoAPb6BjGYjutYp4qRIExPy9SHOj3cLV6CfKFYABrokUGx9ikFJRfQYS68zmgFkFz7HLHQI1K7fOgsBCSWIBGZX8TRcy7QR4rYB4xOql1OAIa4Jbv8gQ/2kn6pIliHFHAjwIzXVHZMnJwyYypkvSWKAf1y7rf/T3t8nt+Vl17wOmdc5b+nSo5nZ//0TBhX0FPOivUnj/LRhrhVtf2/WlzGShPYGOm4nou3YzKGmC9JNkHwtxR/Ta+vvsJjdg7wls/SiILiMmRRjz9fB9xptBtI5ZvqjBtbHLP2Nrpn067YYjcHxbqF5ImkvAPLCh95L0/QMYe5h4LZjXxppn/iFTPGuDoUskcDOAczPxUXSCMLDBSk1egJ5m1u/MBqxxbVtrXQlxGYjOI7CSVkgp88VAmICNzPwKhHiumGXzMxncYrepCWydKyHmEnguFCmIZqWOSWnMiw3M/EzCJdceXDKzK9McaoPbZkrWbwbhH9P5SHUMlgZBmFYzeCUR6lInQxKQd44fU3FHtstzp7S9VXWUu89jaWiQqD8r0m5xABuJ6Dlifo6EeGPfkhlhEHG6QRjR+5mprm1bQ6+UpxhnB2Be/6cFOQK8APD/gOnZqqPuZ6084k+HZf/l1E1W1KiYEQTh1GQ/0iVBELWs8fgVoXrNxfcBpBRP02z8Egm6I3Kt75fpLK3un7Bq20lC6OeBcR4I59nU9d6GvrNNp3HWkXonQwt7JcLhFt9RqzGUsp3SDYwKNBD0BhZaPQENDNQDaAAww3rsHCWmp6XA0wJyQ7oXw9b9AnYvpwbWnHuCofUlT5ABIOw8owbhf8G0pqK7e82em+Z02wEznW3tqs5GnXA2QZ7NxifOBjAuXbth+xm7mRAmxl4G9hLY+BQk9jBjrwbs1XXeW6wqkmo5tKbRRB2YSISJkuUkAiYyaKLxSZhIjAZQRqrCB1mdcRkbGWKjxtjYtbS+wzaGKRpM+v6m6t7q6kUgXpSqYuIQF5uljqUD60PKiiAqkZrW8GcB/j6z8QuVduv/5V4jZGJN19JTcjoAgzvPGWnMM1KXb3sB2gPm/UzULSAPq08wuhk4LND3Cabuvv2JwyzI+GEgydUSripirgZxNQFVEjA+QahW/y8h+vfTBMAo3jfRkpJX2hEwDPJOhmPH4o1GKVyLCFjUfyazFiXwWE8CzYPL+ZQdQVSm3kB4KgS+CuZlVjMHoA6yNYLwYFeTb4ONdhmbqvX2RJWnQuqzicSpYDkboFMBVGfstLQbdgP8OkhsZpavQ2ibmXteL1Sp2NrW0MclG/OnlJBnepm+97GMgeUKM+m1siTIQF5qYpoGfJWBi20dN4xfs8CDsSbfGlvtcmQ8nDjcSIRJzMZjZvNqfjnqOwduDhFBXQLuAVFHMYgwNAdPa2gRSSgdwk/azY+BgCbFimSXd2VNkAEwvMGOqwH6aspn5+bI7STGs1LwsxrLDV3+WUV/t6EKlvXolZM0jSaRwCTJNIk4cQIRDRCoBqAKCKoAy0r1nYBK7lshV9m/Uq7/O/WvmuNeAD0A1KfxnYBeNv6Pe0GiB1LZGHaRPgLwHibXO4J4D0vs0XXeU6n17CmFtf/HBztmaMDHAPExGJ883S4x1MtFlvqK2HWzUqrajgiCKHCUliHp+o2A+CrAVh4hDsNUzfRlpmcl8TP79/b8Gstnq4PK2YqNQNvLFTX6+I+xQQjjJaJ6XJzRxoz1QsN9Vp9yjhiCvHfZ1Ro6UzBdCeDSjH5Z+h0RcJRBz4LxGxb4daypQa0uc7YCIWDMv9K08wA+j2E8WrdzTzEsyv4Xfmuifp9aRmt5G3EEGchcPeJLVI25lBVRiOwIypuDR9gNxnMEtEuITcTc7qwnsXycpTRUD12Y6HQBOYcBVWLnnBTyA5Y7ZYYqLv0YSzyWaZHBEUuQwSjWBDrnMrFaR5LVWcVkZGIMGGQBqF1oYlPXO/F259IsyTG8fHNl7Qnu06Uu56iSO4oUBMyx+eI1LUHU2QKMx3p1PJZtBfZRQZC8nVWSD9UbANoHzjaCtW0C3btK4QY37dGVAwP1oEGieqokfcags4I6M5ySA/emLnJxtjBzPKoIMhiAukC4QRIuYLBadJNk4U2uh1NNuKOdBOyUwC4w74QQO0lCVbffVS6XbMZ7KGAqC0yDlNNANE2ofxtrbHgaQN5cI2fu7/2pKXqF++l3/2lqzkVdRy1Bik8W8x9CRSAAOwlyF5h2guRBhogzI04CcWaOC9bikvSjQnJcalpcY8Sl5LhegbhLuuM94vBRdyIR37dvr3o5irq6ie64y+WulFXHJUTcrfXCLQS5dYJb6LpbCnIL1o6TpLuJyM0SbiK4CdINFuNAPI0hFCn6CaCW4xRryz8pBmfmEGTIOBfnzFKsg61c+i0sKRyCWDwualq3fgCMvnULjLkgqLULKdeJWHTtmKVG4E2odTbgdhLapt6K436fj8snK4PgnEGsoDTIxrsqNB+aWvWG+QDNzeZdi82uR6g5RwDxIsAvEdFriV5uP9Di6yyVZB2CZDkS3h+ETkRvP1nUZEQ1KTGTqQ9ZxlEezWkH1CRGEpvB2Kjr/HIpkcF5ilWgo6jvJeXYUwF9Ng/M4h1VxHmfCKQIAW2z6/Ch13O9LqcQw+mcQQqBcn8fg4kjiXwErgVELSDrAKoFuP+zgEHZ7oq7ANoHqE+xD5BdDOoSzKFyJkIyGByC2D5A8t9gXNtbtZWJQ3WSXLWCE3VMotYgE2McCxqj9ORJchWT6PsOjGFQVb/OvJqoqfTm1d/ApE2lo3e4/+8IQIcJfJiBvu8sj7Cgw8Z3yUdAaoETdRHLLkmufYITXT2usfsOLpmScaGE/KOWnx5KmiBII32QH0gcrw4C7yPgDYZ2A/iAGSZFL9qggkomweYMooNAvhHwBLecTtA2JeunJAiSTIIt3+A4/h0EPK3hm4k5acXF0iBICgk2ZwgdBPKJQE0w9AQDF5X4GSS1BFs+AXJ8j14ETrx715jD7rgSbPKUOEGM8NJKsI3eoXQyzwcC3kDo8yA8lsp3aVxiqQgtSrDlAyjH5+hDoKY1/DfM8pdJZBbeA6R0CGKEZF2CbfQNqZNxrhCYENh+hqDE41aW/JYYQQxREFsSbLkCzfEzOhCYsOr1kwRVPAHCB61kXHoE6YvatgSblWQdm9GNgCGq1KM9aaOGL0qVIBlLsI3uQ8DJPhkC4+/e7NXclT8i4BI7KJUsQYw7kiwk2OyA4NiObAQ8gY4ricTXAT7NbqYlTZB+kmQtwWYXFMd+ZCBQt7rTp0v9NoC+mGlGpUAQVc3QArOzl2DLFCSnXfkhUNMaXsrMtwE4IV30JS3BphgqNL4SoC+nS0SpYORKgi19X45FOSLgDW6fR0jclmr6yKC8EsR8jST6YskqTA2cwvo1rL/XL+qSZmxyL8FWjgeDE/P7CKhKNTr0xTDuNYwq+OmOoXZi7Z8izfUvlfR6kMHXeDVt22dJPfEdAj6TLj1jfx4l2Cz17xgVHQGlHyOIFkGy0g6xVvGf6OGKQ93XDCwPLhuCDKBdEwx9jYE7raJfKAk2q/E4dvlHwBPs+AKRWARmW0XLCfyNiL/x24MjLDuCqOC9gfA5ICgdkM/ZgLvgEmw2YnNMs0Sgtm3HZF3vWUwgJb+mCmJb35ifkUQr9vt9aorJMVtZEmQgA08wtJigiGJJx/z9xIsswWZ95BzLdAjUtG3/CCd6r4S6lAJq09kfs5+gVguuiDb5/iNZu7ImiEpqSttbVXG9+0b0EWW8LYBUDdwSk2CzGf+oM1ea7BEXLySmBSBaoGQUMgDhLQZWVMf3rdh9wzmqoEXSrewJ8t7ZpDV8GrG8MZsXP44EWwaHWgGa1D6wcwrHexaC5PkMQwwp0/KvvWCsAOg+q5X0RwxB3r/s6rgQoMsJuLxf1DKjIXQk2DKCLWeNJgQ6ztCIPsXAhf2KU5n7JtoD8ENCx4NdS32v2HE04ggykLyaSiAlX84GUezPsxkGoiPBZue4smVrIsH20WSldmw5Br0E0EMVxA/taWrYa69tn/WIJchgMLyBsDqbXA7iz2YCUoo2jgSbHUALJMEG4GckxEORa+t/bic8M9tRQZCBxGtXhc5iosu5jyi+bMFL0d6RYCuwBBsGLqNIPNR1bf3LuRrbUUWQY88qob8F4XzA+JudK0BT+3Ek2HKLM20l8O+Y+Bmd47874D89llv/o+QSKx1ota2hjzPjk9xHljPS2edxPzsSbOnQpWdB/Ayz/F3MP/PZdNbZ7h+1Z5BkwHlaw+eSIgrLT/YJ5DhbcRGgGIyzBJ7RWP9dl3/W1kLG4xAkBdo1K7fOgkvMlcxzySCLoSilFXKARmFf28H8PCA2SskbXYf1jV23zDpYLBwcgthA3rsiNB4VmA8p54PERwBDs7DGhgvHdAgCzHiFQH9g0PMaY2PX0vqOUgLJIUiWo+FdHToVOuaTwFks+TQQqRt+hzTmuG4G8LqSYSNy/YEO9r5QzLODlaF3CGIFJZs2dYHtJ0jqPY1Zmw2Sp4ExG2Q8KbM7V8xmzyVj3kcEgtIifB0Cm6PX+l4vmehsBOIQxAZY2Zp62jqnQefZgDyNiCYzqJbYmIGq5NdqQTBUpLLtJ4/tewHsA6irT4KN9jHYUKIyhDnLmAhJH9oEQ+tLfsltHge85Fyr2aqxCnetTr21GriWda4l4lpmWUdCGyMlV5FaHUdUxQPfwVVAnxzbIOk14zsDvQQ6DCWzRkp6beh3PsKEw8RsyLEZUmyMA6S0B0nbpw5+jakr4aJ9sSX1B0oOsDwHVNJnEAJui/h9llcP5hkrx/0oRKCkCQLmF6LNjfNG4bg4KZcIAqVNEEejsEQOk9EbRskThEAtEX/DytE7RE7mxUSg5AkC4Omo32erOkUxAXX6HlkIlANBwIxLYs2+J0YW9E425YBAWRAEjD0k5CWRppkvlgOoTowjB4HyIIiBN7cT8aciTTOV8qizlRkCtcHw2Qycw6wb03BYiDgYu1nH7v3X+TaUajplRBADwt9G/T61ZsPZygQBQ38DWAYiNbkzyUbtYP2/o3WJO3HZ7J5SSq3cCAIGfhLz+zLWdCgl8Ed6LN7W8M/BtuoAvEAS34ks9f2yVLApO4IYp2fgOzG/T1XqdrYSRcAbDO3OuDIJYXm0yffNUkitLAmigCPgcQLd3uVv2FgKQDox9CEw8QfbJiV6dSV8ZK8M6FAACV9KVRK0UHiXLUH6ATrEzN+KNTcq7RBnKzICarYy6foTAGVSDnRY9KS55kWWnPxCMdMqdYKoerv/bgGg34Dp9mhzwx8t2DomeULAG+hYDaIlOXT/YtTvS3Fzn8OekrgqaYIoAR0QSyEoaKE0j5rWfXvE33CMvkP+IXR6UAh4gh0XEujJVGgw4RUB/FZn/IkYJxLRXwF8Rao2JMXCyNL6Z4qFcskTRD0j97R1Hk+S7wXzP6QDikHriTkYbfb9VzpbZ3/uEKgJhtYw8IVkHpnwtVgv7kGL7+hgG28wdCkYK0GYZNaWgUDM71uau0jteSoLggyk5A2GvgLgHmspcjuBHk1oePTAEl+ntTaOVaYIeIMhTtqW6cZoc0PKS2VvMHQIQLWJj79E/b4TM40r23aKIElJr+ObuXzJSWYdTVgZ+rjQYBqEmQ51TbBzoST5XWKcZTH5OMCPMsSjMX/D0xbbOGY2EPD+IHQierErSZPfRP2+T6Zz5w12Xg1IUyGbXOuRp4ulWPtzQhAj+LaXK7xyQguYlwGYajkhxp8A8agG8ei+5pPfsdzOMUyJgHdVaD4EzB+QsPxmtHnm8nQQeoJbTidoSvFp2OYQxMYZZDB6tSu3TGFNa2FQC8DWVEz7HESI8ChY/g8nxO+iLb530w2gsz85AimvAoBPm2n/DfV24t27xhx2xw87BBmCgN1LLNPLtBVb5whNtIDwjxkcyPsZtIHAvyfm30SaG1VldmezgUCqMSTCXZEm39fSuVOCOYLoVVOCEM7a3+Qz3ZfObzntz90lVpKsa1Z3LoCULQxckgUwrwFQhHkq4m9cl4WfUdO0LhBu0IlDpgkT/Z8mj56zr3m2uglPuqV6AOPWDlS/teRDpmeXkQRy3gkyAJYhIA8sRt+fOwsQ94Owjpie7JG9Tx5cekokC18juqk3GPoVgAuSJJlyFraaCi/BSTU9CHhSEn0t1tSgprCM2K1gBBlAsPb+zkaZ0P++jyg0PVtkidDJktuNtSlC25To5fYDLc4jZIWrJ9h5LUG2JsOYCativbhx6HuQCa1vTBfs2m5lbJSPykOHb91z05xuK/blZlNwggwApIpOs4bFJLAYjPk5Bk5dOrQTuF1C20TM7RqOtqe7pMhxDEV3VxfYPFaKyteYUZ+CJK9A4o8CvF4KGiMY0xiwWfeMEyBxa7Qp9XuVogOSQQBFI8jgWGtaw58F8+eUshQDdRnkYanJ4LMNSHuLid7SmN+G5nqra8n0ty05KTMjb2DrcpD410KEzUCYDKLU/6wQ/RWij5IgyECifdNX5PlgVkI5apXilEKAMKiPtwC8TcBbDH4bijwjgEje1vBTYC5gFRpeJzS6pWuJPXnnAo+1pe5KiiCDI57S9nLVUTnufIZ2PljJsHHW9yuWELFmdAigQwTuZkBdzvX/qX/TIUHq36Sm/avr8r7vkIc09SllN2vCRaAqCa5Sn5BURSSrWH03/g9j2KjpS/3fURX1+xZYC83cyhvsaAPoy9n4yKDtD1kTN5Zz/eCSJcgxg7GcXZ6J2wwJNiJ8HMBpGQxWOTeJR/0+Oy9dTXOtWd35OZYys8sflt8ECYX739kFkpj/OdLceIfddqVgXx4EGYLU8W2hepHgD5OguWCaS+C5DBxXCoDmKYZo1O/LiQBQ7erOD0kpb7V5oF8W9fseU7lNWNXx15qgexk402auuxh8a8zf+JDNdkU1L0uCDENsRei4CYT55MI89USMVLUOZtOp2kVFO9POGbujzT7r89ss9FPbtmOyTBxdAhLXJL3XI3qYhHaf2QrCmkDHPzDRvQCOt9DdIBN6lkjcGGmaURb11EYGQUxGSJ1lNMlnEFMjMzeCqBGA+stuXba9oyFX1h1Rv29mrpwN9uMNhB4F4TIT35uifl9a+W1vIHw7iKj8Z38AAA4USURBVL9hNzYGfpqQietL/UXviCVIsgEbf/dmr8td2UgsGyWokQzicCMgfP1iN3bHOv/2zK9FmxvtXtJYissbDKm1PGpNz9CtK+r3WXrkPqk1PDEBvpsZiyx1eqzR7VG/ryCPoTOITRUiGb7lYrJiJsEUu824VW/UuLSKyaTLyURisiSeTMSTIWkyiJU822Ringwis0VEeQyfnov6Gz6ajw48gY6biei7Zr6jfp/p8ZEsjppVHR9hje6x++KXlIQc042R5oaf5CPHbHw6BMkAPTULQLj0yQldm0wajVGPaEmnKhZkSK71PaZN/sgWQC9A3QQ+zODDhswacFgwHWYy5NeOCMlHGHyENXFYSHEk4q/PyyTNmmBosbrcMYOhJ4GJh1p8++xC5GndegVBU8uxbd4H8kusy+tj1816zm6f+bK3TRBHgi1fQ1EcvzWrti5gIUzJJ5nP3N/cqGZSZ7TVBENfZyCDx7v0qKtCLNt7zYw9GXWcw0a2CeJIsOUQ/RJwVRPoOIWJTOWgGXxRzN/4VDZhjv/hZq+rp1LVSPuSXT9qTljM77vNajt1azBg6yK8KyX2RqM9e7E889rC9gniSLBZHa+ysFMTGnWqPGgeLC2J+hvuz0Uiavq8Dv4+AZ+w6e9dEK5PVtGxZlXnAtb4YjA+bTrbgrEHxD9luH4a889ot9l3ypt0dcNk+uzdkWCzC3Np23sDoXeSlPjJ+RMmbyD0eRD9G8An2UOFN0nQsv1+3+9Vu5rg1s8whFoV+WHrfvh+AXG/ndK4SZ9SeAPha0Cc7NfDkWCzPiolb1kTDL2S5M34A1G/75/ykYAn2HETgTIoT8s/ZxIvELPpkzcrsRLpCyJNs35nyTaVkTfY0QWQ6RQHR4LNCrzlYeMNdDwFIrPZvr+O+n3JViRmnZx6Gkgu3MVAU9bO7DnYhQQ+GW3xmd57DXaV8jm3NxC6HoS7Tft2JNjsDUkJW3uDoR8AGH6mIPxftMmXk6LXqdKfsHrrHCHFXQDS1urKIYx/TMR7Ln73htnRVD5TEmTsilBdpYt2JH/D7Eiw5XDAiubKG+i4HURm00VyNknSSnI1wfBnGLgL4LxMqzGJ4WdRv+/zGRNENfQGO74H0E0pnDgSbFZGv4RtPMGOawlkuna9Ku6u2n3D1COFDL//ykXdY1TY7pexGwK7WKKBKP3q1HQF8NJOJUhVXW8geEeCzfYwllQDT2vHRcRkKumtV1TMOHDNdEsFHHKZ1JS2t6qO6IfuItB1Fv0+Bol7okt9fxqw9wZD8wC+Os1CsZQPItISpO8sEroUwNpUgToSbBaHsQTN+u8BzN+YM51bTI0X76rQbBLGjfxFyaHj+6P+xqQaKGlKGL0T9fsmJ/NtiSBWSeJIsJXg0W8hpP4Zzqb1xYj57yLNjT+34CZvJmr5dVw/PllZodfkUdcn9l9/8v5UAaQqXqFLnH1gqfn6ecsEsUoStQbbkWDL27GSN8feQMchs1nKzGiONfuUWFLRtgmtoTMF4xWzAJixKtbsS3sZVtO69cPMwlQ6LtV9iC2C2CCJMnUk2Ip2SNnv2BsMdQDwDW/J3476G20viLIfQfIWntbwFcT8sJmF1TPc+B/u8rp64qZnyZwSxCZJHAm2XB4pefTlDYR+D8Jfm3Txo6jfl0kB8pxFm6a213vr5VN16FnZ+UHSpOlcLAH6ULLpJ7bPIANB9N+4q0eDaYsJOBJsOTtW8ubIGww/nESbsOiP8T2tnRcRS9OnbAzcGvP70k47qQmEvsMEVaxi2Ca0iinJCgdmTBDjTLIidCq7cCsBqtauhc2RYLMAUlFMvMGQkmO7waTzzVG/r6hllib95J3q3kMHk1aiT3UGUPkYKx0FqTUvY83ATbVyMiuCvHc2CYQvB8mvATTH4ug6EmwWgSqUmXd15zJIqaqUDN32R/0+T6HiSNaPNxj6S8pKmwKzo9cOn1vVNxsEvwBwjplvBq+M+RtbkvWbE4Io57UPbBmnH9XU2URNQbbu15FgK/axZ/RfE+j4HBOZFpXLdOltrhLzBkLLQUhf2IHlN6UUG8b2ul/odnf7wNpHQbiBkKJ4N+hTqXQyrR/IFrP1tG45V7B2a+oXO6bOHAk2ixjnw6wmsHUukzCtVcXQ58T8s2wvNso2Tm9w+zygdwVAc7P1ZdqeuS3a3HhtKt85J8hAZ57WUBOxcVM0LYPkHAm2DEDLpsnEH2yblOjVzUVUGedHm32/zca/3bbe1vDtYPv1tmz008GaOC+2pH5nUQiiOq0LbD4hgYqriOgqALNtBD/U1JFgywI8q02T6aoT0xcLVZJHXYEQa/cBONtq3BnYHdTBZxzwN25L1zZvZ5BjOl6+3uWddOJVxLiKgY+lCyrNfkeCLUsAkzX3BsNvATxsXhIT3RJrashg9Z/1QKf/aLv7wJHENwj4upVWhhYJ0GDFdoiNradyhSHIoAhrg6FLJKDOKLarhJuB4UiwZXCIJGniCYQ2EuEsk933Rv2+63PX07Ge+oVev2+xIPYuhlwU8898tv/9iD+FDuPQkB+L+n1mZVaTplZwggxE4g2Ez4HAVWBFFlt66lbGyZFgs4LSEBtPIPQLIlUdZOjGj0T9jVdm4DJlk+OD7R4Xj7k52Qu8oY2J6HuRpoZbhv6/Jxi+AJAXAHTB8LOKWvCHxyTxw5nIVheNIANJKlFPXeerSPKlIKO4dN620SjBZgdMTyC0kghLh9ED2BDz++yW60nZdd+vv34HQBaW9PIbkvEFK0Xs1Pol1jXvQOf7r/NtsIPBMFJm0zjXbfukonkhQAsBzMu1fwv+RqQEm4W8DRNPMHwTgU3uNXhr1N84y6qfVHa1K7dMYZdrGTPfbMUfgb4R8Td824ptPmyKfgZJllTd6k6fLnEhWD+PiBaUmEBOdhJspFUY0mtCVkvmauM7syqIXQuiSQxMIkDVtT2BgU25/vVOhnmKWbPvVsXdJ2S79LZ//t6/WFMI4xdJ5y9Grpu5JR8HvlWfJUuQwQk0rAgdF6sUFzLLC8F0gdmTFqsJl5sd5+HyJilBVm45lzTtD2b7s1l6e/yKUL2mUQuIk07pGNLn9VG/z2zaS8GHrywIMhQVQ0ZMT1zEJM6kPimwnKovFXwUUnRYSIJ4A+GpIDZ/cZbh0tua1eGrWLK6sT41La5Ez+iJxDUHrptV8DXwyWIrS4IMTWZc29baCq44k6V+Vj9hFGnyesOfdrBzZFBIgqiQk70sBPN2Ivo/CfxZSPkyNLwYaZqpJhCabp7W8GkEbgFDSbxZ2HhJ1N+YkzrAFjqzbDIiCGKWrZoi3XOk+0zRq5/FhDNBpEhjdbaxZQDzbVgogvQvSlKXQJZn7qpCHS7uuXNf8+xjpqIbZYSIloGR9saeQb/Q9ERz13Wz1AOSkttGLEFMkV7OonZi55kSPKP/smwqwOrybCpAJ6acTl2koSsEQTzB0HqCIa9teyPgVRZYrKaaqwmPINHCwGILjnSC/FLEP/PHFmyLZjK6CJIO5rWsTYhsmUospkK4TgTzVMgBAmEqERSJJqZzk8v9+SaIN9jxMEBXZBnzZjAe6LsJp+npfBFjTQ8nlpW6gKfKwyFIutEcun/tWs3bc2a1iOljQTw2obmqieVYElo1dB5L4LGqOogExpKhZchjIdV3vP9/zL0w5NeoW4C6DRk2UpJs6GKJPUQUISmjCS0RFb2uaLTF967dMK3Ye4OhRwBcbsU2Rzb7mWRTrGmm6rcsNocgZTFMuQ/SE+i4kogeyr3nJB4Z/6GhZ9nQ+5WC9Z9hRw5BMgSu3Jt5Ax3Pg+gjSfMwlJlwl2TeoKZ4eFeHToWO+SzgJzad0JjM1S51wx5pavjvcsTMIUg5jlqWMavJfQT+VQo3KWe9eoOhp61IFRDQGtEOLMOSD/VmGXLRmjsEKRr0xevYE+xYkaIotCX1sJpA6EEmLDLLQq3VgBDLYtfWpyJh8QCw0bNDEBtgjRRTb2u4HcwfNMsnXQmdgTa1bTsmS73nzwC9N3P2fX+0I+pvOHkk4OUQZCSMoo0cjg++6dHQk0RViduj/kbLL1M9wdBPktVES1Vryka4RTd1CFL0IShsAEpLXGhYb9or0X9GmxquthqRNxj6CoB7zOx1cL2VNd9W+yqWnUOQYiFfpH5rV3U2SiG3mnbP+Pdos+9Gq6HVtIY/y8zm0ggZTm602neh7ByCFArpEumn9rtbxslxmvmLR+aHo82NX7Aaak2wo5VBpnWl9AQaDrT4Oq36KlU7hyClOjJ5jMsbCO1C37SZIZu9e5Ca1lCY2bxqocY948rtpaAZ5A5B8ngglqprbzCk5PSUrN5wigA/jfl9qupMys0b7Pg+QMkux16L+n1q9nTZbw5Byn4I7SeQRm8DTOLiWFP9k6k8J1030jfB77aI33en/chKr4VDkNIbk7xHpMrtaKj6U0o9csa/M2k/iflnHFOT1xsMfxngtqRBEnqEjvldSTT/8p5cjjtwCJJjQMvFXX/t5PTag2pOlsA2SD7BmOpvzFBOtfG/Rf2NN5ULDunidAiSDqERvN8bDKmpIBfkMMUOJLAg2uLbnUOfRXXlEKSo8Be/81T3Ejajs1wQ2qbfopo7BCkq/KXRuTfY0QbQl7OIxlZB6Cz6KXhThyAFh7w0O+x7sqW1AGy5aEN/JrYLQpcmAuZROQQpp9HKc6y1wS0zGdoyBl9uPkt3IAA+CNBaqePBbGvf5jmlrN07BMkawhHoYPnmSs9E93mAPJeIJoN5CoADYOxmiJe0Q71Pdt0y6+AIzHxYSg5BRsMoOzlmjIBDkIyhcxqOBgT+H2FmyRM0EpYbAAAAAElFTkSuQmCC;" vertex="1" parent="1">
          <mxGeometry x="357.5" y="107" width="90" height="90" as="geometry" />
        </mxCell>
        <mxCell id="m1n4NU0bv3hGgVRafb_b-3" value="&lt;font style=&quot;font-size: 14px;&quot;&gt;用户表&lt;/font&gt;" style="text;html=1;strokeColor=none;fillColor=none;align=center;verticalAlign=middle;whiteSpace=wrap;rounded=0;fontSize=14;labelBorderColor=#000000;" vertex="1" parent="1">
          <mxGeometry x="273" y="228" width="77" height="29" as="geometry" />
        </mxCell>
        <mxCell id="m1n4NU0bv3hGgVRafb_b-6" value="&lt;font style=&quot;font-size: 14px&quot;&gt;商品表&lt;/font&gt;" style="text;html=1;strokeColor=none;fillColor=none;align=center;verticalAlign=middle;whiteSpace=wrap;rounded=0;fontSize=14;labelBorderColor=#000000;" vertex="1" parent="1">
          <mxGeometry x="357.5" y="228" width="77" height="29" as="geometry" />
        </mxCell>
        <mxCell id="m1n4NU0bv3hGgVRafb_b-7" value="&lt;font style=&quot;font-size: 14px&quot;&gt;交易表&lt;/font&gt;" style="text;html=1;strokeColor=none;fillColor=none;align=center;verticalAlign=middle;whiteSpace=wrap;rounded=0;fontSize=14;labelBorderColor=#000000;" vertex="1" parent="1">
          <mxGeometry x="452" y="228" width="77" height="29" as="geometry" />
        </mxCell>
        <mxCell id="m1n4NU0bv3hGgVRafb_b-8" value="&lt;font style=&quot;font-size: 16px&quot;&gt;数据库服务器&lt;/font&gt;" style="text;html=1;strokeColor=none;fillColor=none;align=center;verticalAlign=middle;whiteSpace=wrap;rounded=0;fontSize=14;" vertex="1" parent="1">
          <mxGeometry x="341.75" y="59" width="121.5" height="23" as="geometry" />
        </mxCell>
        <mxCell id="m1n4NU0bv3hGgVRafb_b-12" value="用户" style="text;html=1;strokeColor=none;fillColor=none;align=center;verticalAlign=middle;whiteSpace=wrap;rounded=0;fontSize=18;labelBorderColor=#000000;" vertex="1" parent="1">
          <mxGeometry x="131.5" y="470" width="56" height="34" as="geometry" />
        </mxCell>
        <mxCell id="m1n4NU0bv3hGgVRafb_b-14" value="商品" style="text;html=1;strokeColor=none;fillColor=none;align=center;verticalAlign=middle;whiteSpace=wrap;rounded=0;fontSize=18;labelBorderColor=#000000;" vertex="1" parent="1">
          <mxGeometry x="199.5" y="470" width="56" height="34" as="geometry" />
        </mxCell>
        <mxCell id="m1n4NU0bv3hGgVRafb_b-15" value="交易" style="text;html=1;strokeColor=none;fillColor=none;align=center;verticalAlign=middle;whiteSpace=wrap;rounded=0;fontSize=18;labelBorderColor=#000000;" vertex="1" parent="1">
          <mxGeometry x="272.5" y="470" width="56" height="34" as="geometry" />
        </mxCell>
        <mxCell id="m1n4NU0bv3hGgVRafb_b-16" value="Web App" style="text;html=1;strokeColor=none;fillColor=none;align=center;verticalAlign=middle;whiteSpace=wrap;rounded=0;fontSize=18;" vertex="1" parent="1">
          <mxGeometry x="178.5" y="530" width="94" height="15" as="geometry" />
        </mxCell>
        <mxCell id="m1n4NU0bv3hGgVRafb_b-17" value="容器" style="text;html=1;strokeColor=none;fillColor=none;align=center;verticalAlign=middle;whiteSpace=wrap;rounded=0;fontSize=18;" vertex="1" parent="1">
          <mxGeometry x="196.5" y="583" width="40" height="20" as="geometry" />
        </mxCell>
        <mxCell id="m1n4NU0bv3hGgVRafb_b-20" value="应用服务器1" style="text;html=1;strokeColor=none;fillColor=none;align=center;verticalAlign=middle;whiteSpace=wrap;rounded=0;fontSize=18;" vertex="1" parent="1">
          <mxGeometry x="153" y="626" width="127" height="19" as="geometry" />
        </mxCell>
        <mxCell id="m1n4NU0bv3hGgVRafb_b-34" value="" style="edgeStyle=orthogonalEdgeStyle;rounded=0;orthogonalLoop=1;jettySize=auto;html=1;fontSize=18;" edge="1" parent="1" source="m1n4NU0bv3hGgVRafb_b-21" target="m1n4NU0bv3hGgVRafb_b-2">
          <mxGeometry relative="1" as="geometry">
            <mxPoint x="635.5" y="313.75" as="targetPoint" />
            <Array as="points">
              <mxPoint x="636" y="360" />
              <mxPoint x="504" y="360" />
            </Array>
          </mxGeometry>
        </mxCell>
        <mxCell id="m1n4NU0bv3hGgVRafb_b-21" value="" style="rounded=0;whiteSpace=wrap;html=1;strokeColor=#000000;fontSize=14;" vertex="1" parent="1">
          <mxGeometry x="503" y="445.5" width="265" height="163.5" as="geometry" />
        </mxCell>
        <mxCell id="m1n4NU0bv3hGgVRafb_b-22" value="" style="rounded=1;whiteSpace=wrap;html=1;strokeColor=#000000;fontSize=14;" vertex="1" parent="1">
          <mxGeometry x="522" y="454.5" width="234" height="115" as="geometry" />
        </mxCell>
        <mxCell id="m1n4NU0bv3hGgVRafb_b-23" value="用户" style="text;html=1;strokeColor=none;fillColor=none;align=center;verticalAlign=middle;whiteSpace=wrap;rounded=0;fontSize=18;labelBorderColor=#000000;" vertex="1" parent="1">
          <mxGeometry x="542" y="471.5" width="56" height="34" as="geometry" />
        </mxCell>
        <mxCell id="m1n4NU0bv3hGgVRafb_b-24" value="商品" style="text;html=1;strokeColor=none;fillColor=none;align=center;verticalAlign=middle;whiteSpace=wrap;rounded=0;fontSize=18;labelBorderColor=#000000;" vertex="1" parent="1">
          <mxGeometry x="610" y="471.5" width="56" height="34" as="geometry" />
        </mxCell>
        <mxCell id="m1n4NU0bv3hGgVRafb_b-25" value="交易" style="text;html=1;strokeColor=none;fillColor=none;align=center;verticalAlign=middle;whiteSpace=wrap;rounded=0;fontSize=18;labelBorderColor=#000000;" vertex="1" parent="1">
          <mxGeometry x="683" y="471.5" width="56" height="34" as="geometry" />
        </mxCell>
        <mxCell id="m1n4NU0bv3hGgVRafb_b-26" value="Web App" style="text;html=1;strokeColor=none;fillColor=none;align=center;verticalAlign=middle;whiteSpace=wrap;rounded=0;fontSize=18;" vertex="1" parent="1">
          <mxGeometry x="589" y="531.5" width="94" height="15" as="geometry" />
        </mxCell>
        <mxCell id="m1n4NU0bv3hGgVRafb_b-27" value="容器" style="text;html=1;strokeColor=none;fillColor=none;align=center;verticalAlign=middle;whiteSpace=wrap;rounded=0;fontSize=18;" vertex="1" parent="1">
          <mxGeometry x="607" y="584.5" width="40" height="20" as="geometry" />
        </mxCell>
        <mxCell id="m1n4NU0bv3hGgVRafb_b-28" value="应用服务器2" style="text;html=1;strokeColor=none;fillColor=none;align=center;verticalAlign=middle;whiteSpace=wrap;rounded=0;fontSize=18;" vertex="1" parent="1">
          <mxGeometry x="574.5" y="626" width="127" height="19" as="geometry" />
        </mxCell>
      </root>
    </mxGraphModel>
  </diagram>
</mxfile>
